<svg width="58" height="44" viewBox="0 0 58 44" fill="none" xmlns="http://www.w3.org/2000/svg">
<path d="M49.625 40.7501C49.625 40.9736 49.5588 41.1921 49.4346 41.3779C49.3104 41.5637 49.1339 41.7086 48.9275 41.7941C48.721 41.8796 48.4938 41.902 48.2746 41.8584C48.0554 41.8148 47.854 41.7072 47.696 41.5491C47.538 41.3911 47.4303 41.1897 47.3867 40.9705C47.3431 40.7513 47.3655 40.5241 47.451 40.3177C47.5366 40.1112 47.6814 39.9347 47.8672 39.8105C48.0531 39.6864 48.2715 39.6201 48.495 39.6201C48.7946 39.6204 49.0818 39.7396 49.2937 39.9514C49.5055 40.1633 49.6247 40.4505 49.625 40.7501ZM57.995 6.25009V40.2501C57.995 41.0457 57.679 41.8088 57.1163 42.3714C56.5537 42.934 55.7907 43.2501 54.995 43.2501H41.995C41.2491 43.2483 40.531 42.9668 39.9825 42.4613C40.141 42.2567 40.2807 42.0382 40.3998 41.8085C40.5999 41.4124 40.743 40.99 40.8251 40.5539C40.9288 39.939 40.9736 39.3155 40.9589 38.6921V38.2501H56.995V8.25009H40.9591V4.8549V4.55909C40.9578 4.1874 40.9447 3.8217 40.9168 3.4582C41.2602 3.32261 41.6258 3.25204 41.995 3.25009H54.995C55.7907 3.25009 56.5537 3.56616 57.1163 4.12877C57.679 4.69138 57.995 5.45445 57.995 6.25009ZM44.87 5.75009C44.87 5.67593 44.848 5.60342 44.8068 5.54176C44.7656 5.48009 44.7071 5.43202 44.6385 5.40364C44.57 5.37526 44.4946 5.36783 44.4219 5.3823C44.3491 5.39677 44.2823 5.43249 44.2299 5.48493C44.1774 5.53737 44.1417 5.60419 44.1272 5.67694C44.1128 5.74968 44.1202 5.82508 44.1486 5.8936C44.177 5.96212 44.225 6.02069 44.2867 6.0619C44.3484 6.1031 44.4209 6.12509 44.495 6.12509C44.5945 6.12507 44.6898 6.08555 44.7602 6.01523C44.8305 5.94491 44.87 5.84954 44.87 5.75009ZM50.995 5.75009C50.9948 5.68385 50.9684 5.62037 50.9216 5.57352C50.8748 5.52668 50.8113 5.50028 50.745 5.50009H46.245C46.1787 5.50009 46.1151 5.52643 46.0682 5.57332C46.0214 5.6202 45.995 5.68379 45.995 5.75009C45.995 5.8164 46.0214 5.87999 46.0682 5.92687C46.1151 5.97376 46.1787 6.00009 46.245 6.00009H50.745C50.8113 5.99991 50.8748 5.97351 50.9216 5.92667C50.9684 5.87982 50.9948 5.81634 50.995 5.75009ZM50.245 40.7501C50.245 40.404 50.1424 40.0656 49.9501 39.7778C49.7578 39.4901 49.4845 39.2658 49.1647 39.1333C48.845 39.0009 48.4931 38.9662 48.1536 39.0337C47.8142 39.1012 47.5023 39.2679 47.2576 39.5127C47.0128 39.7574 46.8462 40.0692 46.7787 40.4087C46.7111 40.7482 46.7458 41.1 46.8782 41.4198C47.0107 41.7396 47.235 42.0129 47.5228 42.2052C47.8106 42.3975 48.1489 42.5001 48.495 42.5001C48.9592 42.5001 49.4043 42.3157 49.7325 41.9875C50.0607 41.6593 50.245 41.2142 50.245 40.7501ZM5.92643 6.50489C5.6603 6.67379 5.36057 6.78269 5.04809 6.82401C4.73561 6.86533 4.41788 6.83808 4.117 6.74415C3.81612 6.65022 3.53931 6.49188 3.30583 6.28013C3.07235 6.06837 2.8878 5.8083 2.76503 5.518C2.64897 5.21092 2.60753 4.88068 2.64409 4.55445C2.68066 4.22822 2.7942 3.91535 2.97535 3.64159C3.15651 3.36784 3.40011 3.14103 3.68608 2.97985C3.97205 2.81866 4.29222 2.72772 4.62023 2.7145C5.08013 2.67247 5.54085 2.78589 5.92869 3.03663C6.31652 3.28736 6.60907 3.66091 6.75953 4.09754C6.91 4.53416 6.90969 5.00864 6.75865 5.44507C6.60762 5.8815 6.31459 6.25467 5.92643 6.50489ZM9.60393 5.29009C9.25805 5.30243 8.92076 5.40114 8.62281 5.57724C8.32486 5.75334 8.07572 6.00122 7.89813 6.29828C7.72053 6.59533 7.62011 6.93212 7.60603 7.27793C7.59195 7.62375 7.66466 7.96758 7.81753 8.27809C7.96104 8.5426 8.15768 8.7746 8.3951 8.95952C8.63252 9.14443 8.9056 9.27829 9.1972 9.35267C9.4888 9.42706 9.79262 9.44037 10.0896 9.39178C10.3866 9.34319 10.6703 9.23374 10.923 9.07029C11.3069 8.81733 11.5953 8.44347 11.7426 8.00799C11.8899 7.57252 11.8877 7.10033 11.7362 6.66628C11.5848 6.23223 11.2928 5.86115 10.9065 5.61186C10.5202 5.36257 10.0618 5.24933 9.60393 5.29009ZM4.70723 7.87009C4.37053 7.8693 4.03872 7.95059 3.74053 8.10695C3.44234 8.2633 3.18677 8.49 2.99595 8.7674C2.80513 9.0448 2.68482 9.36454 2.64543 9.69892C2.60605 10.0333 2.64878 10.3723 2.76993 10.6864C2.92588 11.0469 3.1772 11.3581 3.49682 11.5864C3.81645 11.8147 4.19229 11.9516 4.58389 11.9822C4.9755 12.0129 5.36805 11.9361 5.7193 11.7603C6.07054 11.5845 6.3672 11.3162 6.57733 10.9843C6.76656 10.6639 6.86574 10.2983 6.86439 9.92624C6.86303 9.55414 6.76119 9.18932 6.56963 8.87031C6.37806 8.55131 6.10389 8.28997 5.77607 8.11391C5.44825 7.93786 5.07896 7.85362 4.70723 7.87009ZM18.5619 41.8089C18.7424 42.1568 18.9698 42.4783 19.2377 42.7643C18.9157 42.9158 18.5761 43.0267 18.2267 43.0943C17.8287 43.1662 17.4255 43.2059 17.0211 43.2131C16.6498 43.2246 16.1574 43.2231 15.7667 43.2231H5.70673H5.29073C5.18013 43.2231 5.07013 43.2227 4.96073 43.2219C4.3865 43.232 3.81255 43.1894 3.24613 43.0945C2.8588 43.0224 2.48342 42.8966 2.13083 42.7208C1.43281 42.3702 0.86471 41.8062 0.509026 41.1108C0.331946 40.7614 0.20519 40.3887 0.132526 40.0038C0.030773 39.3875 -0.0125527 38.7629 0.00312594 38.1384C0.00312594 38.0302 0.00312594 37.9212 0.00312594 37.8115V5.4385C0.00312594 5.32863 0.00312594 5.21963 0.00312594 5.11149C-0.0124131 4.48696 0.0310464 3.86236 0.132926 3.246C0.205621 2.86113 0.332376 2.48847 0.509426 2.13909C0.865059 1.44362 1.43317 0.879639 2.13123 0.529095C2.48382 0.353281 2.8592 0.227471 3.24653 0.155295C3.64461 0.0833544 4.04785 0.0436588 4.45233 0.0365948C4.82363 0.0250948 5.31603 0.0265951 5.70673 0.0265951H15.7667H16.1827C16.2927 0.0265951 16.4027 0.0265948 16.5121 0.0277948C17.0864 0.0176559 17.6603 0.0603018 18.2267 0.155195C18.5761 0.222791 18.9157 0.333644 19.2377 0.485195C18.9698 0.771337 18.7424 1.09291 18.5619 1.44089C18.3618 1.83702 18.2186 2.25937 18.1364 2.6955C18.0328 3.31051 17.9881 3.93399 18.0028 4.55749V4.8542V38.3942V38.6892C17.988 39.3132 18.0327 39.9372 18.1364 40.5527C18.2184 40.9894 18.3617 41.4123 18.5619 41.8089ZM12.3819 5.77819C12.3819 5.49889 12.3819 5.3047 12.3814 5.1421C12.3814 4.9821 12.3794 4.8499 12.3753 4.7285C12.3698 4.49015 12.343 4.25278 12.2953 4.0192C12.244 3.77544 12.1594 3.5399 12.0439 3.3192C11.8033 2.86315 11.4304 2.49049 10.9742 2.25009C10.7535 2.13457 10.518 2.04998 10.2742 1.99869C10.0407 1.95084 9.80334 1.92406 9.56503 1.91869C9.44373 1.91449 9.31113 1.91299 9.15123 1.9124C8.98883 1.9118 8.79453 1.9124 8.51523 1.9124H5.77603C5.49673 1.9124 5.30243 1.9124 5.13983 1.9124C4.97983 1.91299 4.84753 1.91449 4.72623 1.91869C4.48764 1.92404 4.25002 1.95081 4.01623 1.99869C3.77283 2.05002 3.53765 2.13462 3.31733 2.25009C2.86112 2.49077 2.48835 2.86376 2.24793 3.32009C2.13244 3.5408 2.04785 3.77634 1.99653 4.0201C1.94866 4.25365 1.92189 4.49104 1.91653 4.72939C1.91213 4.85079 1.91093 4.9832 1.91023 5.143V5.7791V8.92509V9.5611C1.91093 9.7211 1.91213 9.8533 1.91653 9.9748C1.9219 10.2131 1.94867 10.4505 1.99653 10.684C2.04782 10.9278 2.13242 11.1633 2.24793 11.384C2.48841 11.8401 2.86119 12.2129 3.31733 12.4533C3.53779 12.5689 3.77314 12.6535 4.01673 12.7047C4.25052 12.7526 4.48814 12.7793 4.72673 12.7847C4.84803 12.7889 4.98043 12.7903 5.14033 12.791C5.30293 12.7916 5.49723 12.791 5.77653 12.791H8.51653H9.15253C9.31253 12.7903 9.44503 12.7889 9.56633 12.7847C9.80464 12.7793 10.042 12.7525 10.2755 12.7047C10.5193 12.6535 10.7549 12.5689 10.9755 12.4533C11.4317 12.2129 11.8044 11.8401 12.0449 11.384C12.1604 11.1633 12.245 10.9278 12.2963 10.684C12.344 10.4504 12.3708 10.2131 12.3763 9.9748C12.3804 9.8533 12.3819 9.72099 12.3824 9.5611C12.3829 9.39859 12.3829 9.20429 12.3829 8.92509L12.3819 5.77819ZM19.7242 41.7982C19.6225 41.6578 19.5319 41.5097 19.4534 41.3551C19.3744 41.1996 19.3071 41.0385 19.252 40.8731C19.3071 41.0386 19.3745 41.1997 19.4534 41.3552C19.5318 41.5097 19.6222 41.6578 19.7238 41.7981L19.7242 41.7982ZM23.8595 1.00009H23.9769H24.0861H34.8856H35.2543L35.5424 1.00109C35.9917 0.9925 36.4408 1.02453 36.8842 1.0968C37.1383 1.14376 37.3845 1.22623 37.6156 1.34179C38.05 1.56156 38.4028 1.91439 38.6224 2.34879C38.738 2.57974 38.8204 2.82583 38.8673 3.0798C38.9451 3.57135 38.9774 4.06902 38.9638 4.56649V4.85469V38.1701V38.6848C38.9773 39.1817 38.945 39.6787 38.8673 40.1697C38.8204 40.4238 38.7379 40.6701 38.6222 40.9012C38.4025 41.3357 38.0496 41.6886 37.615 41.9083C37.3841 42.0238 37.1381 42.1062 36.8842 42.1531C36.5828 42.2075 36.2775 42.2371 35.9712 42.2416C35.7182 42.2495 35.4001 42.2501 35.1112 42.2501H34.995H34.8858H24.0861H23.7161L23.429 42.2491C22.9796 42.2577 22.5304 42.2257 22.0867 42.1533C21.8329 42.1064 21.5869 42.024 21.356 41.9085C20.9215 41.6888 20.5686 41.3359 20.3489 40.9014C20.2334 40.6704 20.151 40.4244 20.1041 40.1704C20.0262 39.68 19.9939 39.1835 20.0076 38.6872V38.3955V4.85549V4.5655C19.9939 4.06843 20.0263 3.57117 20.1044 3.08009C20.1513 2.82598 20.2337 2.57973 20.3492 2.3486C20.5691 1.91452 20.9217 1.56192 21.3558 1.34209C21.5869 1.22657 21.833 1.1441 22.087 1.0971C22.3885 1.04271 22.6939 1.01311 23.0001 1.00859C23.2531 1.00069 23.5712 1.00009 23.8595 1.00009ZM23.8595 9.48683e-05C23.5607 9.48683e-05 23.2311 0.000894693 22.9695 0.00909469C22.6091 0.015414 22.2497 0.0510315 21.895 0.115595C21.5499 0.180437 21.2156 0.2933 20.9018 0.450895C20.2794 0.766709 19.7737 1.27256 19.4581 1.8951C19.3006 2.20886 19.1877 2.54313 19.1229 2.88819C19.0323 3.4412 18.9938 4.00149 19.0079 4.56169C19.0075 4.65869 19.0075 4.75643 19.0079 4.8549V38.3949V38.6882C18.9938 39.2484 19.0323 39.8086 19.1229 40.3616C19.1877 40.7067 19.3006 41.0409 19.4581 41.3547C19.7738 41.9773 20.2796 42.4832 20.9022 42.7989C21.216 42.9565 21.5503 43.0694 21.8954 43.1342C22.3997 43.2193 22.9109 43.2576 23.4222 43.2485C23.5194 43.2491 23.6172 43.2494 23.7155 43.2495H24.0861H34.8856H35.1119C35.4108 43.2495 35.7406 43.2487 36.0026 43.2405C36.3628 43.2341 36.7219 43.1985 37.0763 43.134C37.4214 43.0693 37.7556 42.9564 38.0692 42.7987C38.692 42.4831 39.1979 41.9772 39.5136 41.3545C39.6712 41.0407 39.784 40.7065 39.8488 40.3614C39.9393 39.8084 39.9778 39.2482 39.9638 38.688V38.1708V4.8549C39.9638 4.75636 39.9638 4.65863 39.9638 4.56169C39.9778 4.00149 39.9393 3.44121 39.8488 2.88819C39.784 2.54313 39.6712 2.20886 39.5136 1.8951C39.1979 1.27239 38.692 0.766509 38.0692 0.450895C37.7556 0.293253 37.4213 0.180387 37.0763 0.115595C36.572 0.0305218 36.0608 -0.00774075 35.5494 0.00129507C35.4523 0.000695067 35.3546 0.00036133 35.2562 0.000294663H34.8856H24.0861H23.8595V9.48683e-05ZM31.5888 1.5101H27.4161C27.1754 1.51261 26.9455 1.60999 26.7762 1.78108C26.6069 1.95217 26.5119 2.18315 26.5119 2.42384C26.5119 2.66454 26.6069 2.89552 26.7762 3.06661C26.9455 3.2377 27.1754 3.33508 27.4161 3.33759H31.5888C31.7096 3.33886 31.8295 3.31616 31.9414 3.2708C32.0534 3.22545 32.1553 3.15834 32.2411 3.07337C32.327 2.98839 32.3952 2.88724 32.4417 2.77575C32.4882 2.66426 32.5122 2.54465 32.5122 2.42384C32.5122 2.30304 32.4882 2.18343 32.4417 2.07194C32.3952 1.96045 32.327 1.8593 32.2411 1.77432C32.1553 1.68935 32.0534 1.62224 31.9414 1.57689C31.8295 1.53153 31.7096 1.50883 31.5888 1.5101ZM31.641 2.8738C31.552 2.8738 31.465 2.8474 31.391 2.79796C31.317 2.74851 31.2593 2.67823 31.2253 2.596C31.1912 2.51378 31.1823 2.4233 31.1997 2.336C31.217 2.24871 31.2599 2.16853 31.3228 2.1056C31.3858 2.04266 31.4659 1.9998 31.5532 1.98244C31.6405 1.96508 31.731 1.97399 31.8132 2.00805C31.8955 2.04211 31.9657 2.09979 32.0152 2.17379C32.0646 2.24779 32.091 2.33479 32.091 2.4238C32.091 2.4829 32.0794 2.54143 32.0568 2.59603C32.0342 2.65064 32.001 2.70026 31.9593 2.74206C31.9175 2.78385 31.8679 2.81701 31.8133 2.83963C31.7587 2.86225 31.7001 2.8739 31.641 2.8739V2.8738Z" fill="#1D1D1F"/>
</svg>
