<svg width="37" height="45" viewBox="0 0 37 45" fill="none" xmlns="http://www.w3.org/2000/svg">
<path d="M14.0849 43.5034C13.9509 43.3462 13.8292 43.1791 13.7207 43.0034H4.22679C4.14729 43.0034 3.85119 43.0034 3.76679 43.0034C3.3224 43.0206 2.87757 42.9828 2.44249 42.8907C2.10726 42.8102 1.80209 42.6354 1.56309 42.387C1.32527 42.132 1.16368 41.8155 1.09669 41.4734C1.01922 41.0237 0.988726 40.5672 1.00569 40.1112V9.29466C1.00569 9.19806 1.00569 8.98206 1.00569 8.88276C0.985085 8.40315 1.02218 7.92281 1.11619 7.45206C1.19964 7.09118 1.3927 6.76497 1.66889 6.51816C1.81153 6.39215 1.97363 6.29007 2.14889 6.21586C2.32262 6.14364 2.50454 6.09296 2.69059 6.06496C2.92617 6.02963 3.1639 6.01059 3.40209 6.00796C3.56009 6.00416 3.74399 6.00356 3.92009 6.00356H5.20299C5.25236 6.00131 5.30182 6.00385 5.35069 6.01116C5.39933 6.01733 5.44461 6.03924 5.47964 6.07354C5.51467 6.10784 5.53751 6.15266 5.54469 6.20116C5.55579 6.25366 5.55469 6.56476 5.55629 6.61116C5.55636 6.72231 5.56488 6.8333 5.58179 6.94316C5.60043 7.05165 5.63764 7.15612 5.69179 7.25196C5.77874 7.40376 5.90415 7.52996 6.05539 7.61786C6.17329 7.68475 6.30344 7.72723 6.43809 7.74276C6.57382 7.7562 6.71029 7.76054 6.84659 7.75576H12.2712C12.5223 7.78221 12.7759 7.74102 13.0057 7.63646V5.00336H4.22729H3.94189C3.75099 5.00336 3.54989 5.00406 3.37779 5.00826C3.0941 5.01237 2.81101 5.03576 2.53049 5.07826C2.26471 5.11927 2.00493 5.19255 1.75689 5.29646C1.4826 5.41258 1.22892 5.57235 1.00569 5.76956C0.580237 6.14942 0.28072 6.64998 0.147093 7.20446C0.0300437 7.76025 -0.0174539 8.32844 0.00569288 8.89596V9.29466V40.1112C-0.0125587 40.6395 0.0258269 41.1682 0.120193 41.6884C0.226262 42.2087 0.475005 42.6892 0.838593 43.0762C1.20617 43.4588 1.67444 43.7298 2.18939 43.8578C2.70552 43.9723 3.23402 44.0212 3.76239 44.0034C3.85509 44.0034 4.13119 44.0039 4.22729 44.0034H14.5857C14.4475 43.8907 14.3169 43.7691 14.1947 43.6393C14.155 43.5964 14.1228 43.5477 14.0849 43.5034ZM6.70409 7.03966C6.62942 7.04507 6.55471 7.02968 6.48826 6.99518C6.42182 6.96069 6.36623 6.90844 6.32769 6.84426C6.29496 6.78403 6.27781 6.71656 6.27781 6.64801C6.27781 6.57946 6.29496 6.51199 6.32769 6.45176C6.36626 6.38765 6.42185 6.33549 6.48828 6.30109C6.55471 6.26668 6.62938 6.25137 6.70399 6.25686C6.8015 6.26596 6.89211 6.31113 6.95806 6.38352C7.02402 6.45592 7.06057 6.55032 7.06057 6.64826C7.06057 6.74619 7.02402 6.8406 6.95806 6.913C6.89211 6.98539 6.8015 7.03056 6.70399 7.03966H6.70409ZM7.94209 5.37966H11.0291C11.0621 5.37976 11.0937 5.39287 11.1171 5.41614C11.1405 5.43941 11.1537 5.47097 11.154 5.50396V5.50486V5.52336C11.154 5.55658 11.1408 5.58844 11.1173 5.61193C11.0938 5.63542 11.0619 5.64863 11.0287 5.64866H7.94209C7.90888 5.64863 7.87703 5.63542 7.85356 5.61192C7.83008 5.58843 7.81689 5.55657 7.81689 5.52336V5.50446V5.50346C7.81718 5.47044 7.8305 5.43888 7.85395 5.41564C7.8774 5.3924 7.90908 5.37936 7.94209 5.37936V5.37966ZM36.0057 4.39496C36.026 3.79883 35.9836 3.20222 35.8792 2.61496C35.7631 2.0304 35.4886 1.48898 35.0857 1.04986C34.6822 0.619634 34.1642 0.313658 33.5926 0.167958C33.0225 0.0389725 32.4382 -0.0161132 31.8541 0.00405824C31.7436 0.00359158 31.6323 0.00335825 31.5204 0.00335825H18.6717H18.357C18.1457 0.00335825 17.9232 0.00415822 17.7328 0.00895822C17.4191 0.0133485 17.1062 0.0395784 16.7962 0.087458C16.5021 0.133779 16.2149 0.216446 15.9412 0.333558C15.6373 0.465316 15.357 0.645751 15.1112 0.867758C14.6392 1.2996 14.3085 1.86382 14.1623 2.48666C14.0328 3.11404 13.9802 3.75486 14.0057 4.39496V6.00356V39.6121C13.9854 40.208 14.0277 40.8044 14.1321 41.3915C14.2482 41.9763 14.5229 42.5179 14.9261 42.9572C14.9419 42.974 14.96 42.9872 14.9761 43.0033C15.1601 43.1934 15.3682 43.3585 15.5953 43.4944C15.8528 43.6467 16.1301 43.7627 16.4194 43.8391C16.5125 43.8639 16.6083 43.8664 16.7023 43.8842C17.1828 43.9682 17.6701 44.0081 18.1579 44.0034C18.3271 44.004 18.5009 44.004 18.6717 44.0034H31.7096C32.3053 44.0259 32.9017 43.9795 33.4868 43.8653C34.0745 43.7352 34.6122 43.4382 35.0353 43.0101C35.457 42.5716 35.7467 42.0232 35.8711 41.4277C35.9826 40.8293 36.0278 40.2204 36.0057 39.6121V4.84486C36.0057 4.69436 36.0057 4.54266 36.0057 4.39496ZM23.3469 0.514958C23.3469 0.48048 23.3606 0.447414 23.385 0.423035C23.4093 0.398655 23.4424 0.384958 23.4769 0.384958H26.5355C26.57 0.384958 26.603 0.398655 26.6274 0.423035C26.6518 0.447414 26.6655 0.48048 26.6655 0.514958V0.534958C26.6655 0.569436 26.6518 0.602502 26.6274 0.626882C26.603 0.651262 26.57 0.664958 26.5355 0.664958H23.4764C23.4419 0.664958 23.4088 0.651262 23.3845 0.626882C23.3601 0.602502 23.3464 0.569436 23.3464 0.534958L23.3469 0.514958ZM21.7755 1.34796C21.8158 1.28091 21.874 1.22637 21.9435 1.19039C22.013 1.15442 22.0911 1.13841 22.1691 1.14416C22.2711 1.1536 22.366 1.20081 22.435 1.27654C22.504 1.35226 22.5423 1.45104 22.5423 1.55351C22.5423 1.65598 22.504 1.75476 22.435 1.83048C22.366 1.9062 22.2711 1.95341 22.1691 1.96286C22.091 1.96852 22.0129 1.95243 21.9434 1.91636C21.8739 1.88029 21.8158 1.82567 21.7755 1.75856C21.7412 1.69548 21.7233 1.62482 21.7233 1.55303C21.7233 1.48124 21.7414 1.4106 21.7757 1.34756L21.7755 1.34796ZM35.0057 4.76986V18.4787V39.6315C35.0256 40.1591 34.9887 40.6873 34.8957 41.2071C34.8126 41.6221 34.613 42.005 34.3203 42.3108C34.0299 42.6039 33.6602 42.8059 33.2566 42.8921C32.7467 42.9868 32.2278 43.0242 31.7096 43.0034H18.6704C18.529 43.0034 18.3049 43.0034 18.1621 43.0034C17.9172 43.0023 17.6982 42.9961 17.485 42.9844C17.2126 42.975 16.9418 42.9378 16.677 42.8733C16.6627 42.8696 16.6518 42.8612 16.6377 42.8572C16.2637 42.7571 15.9246 42.5559 15.6577 42.2756C15.3774 41.9683 15.1877 41.5893 15.1098 41.1808C15.0215 40.6628 14.9867 40.1371 15.0057 39.6121V6.00336C15.0057 5.48926 15.0057 4.89336 15.0057 4.37976C14.9824 3.82669 15.0248 3.27281 15.1322 2.72976C15.2309 2.29955 15.4573 1.90917 15.7816 1.60976C15.9471 1.46048 16.1359 1.33916 16.3404 1.25056C16.5389 1.16626 16.7472 1.10701 16.9604 1.07416C17.2245 1.03366 17.4911 1.01184 17.7582 1.00886C17.9409 1.00426 18.1545 1.00356 18.3572 1.00356H18.5228H18.6719H20.6226C20.6777 1.00107 20.7329 1.00392 20.7874 1.01206C20.8417 1.01892 20.8922 1.04332 20.9313 1.08156C20.9704 1.1198 20.9959 1.16977 21.004 1.22386C21.0133 1.27828 21.0176 1.33345 21.0169 1.38866C21.017 1.51253 21.0265 1.63622 21.0453 1.75866C21.0662 1.87977 21.1079 1.99636 21.1686 2.10326C21.2656 2.27266 21.4055 2.4135 21.5743 2.51156C21.7059 2.58619 21.8511 2.6336 22.0014 2.65096C22.1529 2.66597 22.3052 2.67085 22.4573 2.66556H27.5545C27.7066 2.67085 27.859 2.66597 28.0105 2.65096C28.1608 2.63358 28.306 2.58617 28.4376 2.51156C28.6063 2.4135 28.7462 2.2727 28.8431 2.10336C28.9037 1.99645 28.9454 1.87987 28.9663 1.75876C28.9852 1.63633 28.9947 1.51264 28.9948 1.38876C28.994 1.33354 28.9983 1.27837 29.0077 1.22396C29.0158 1.16988 29.0413 1.11992 29.0804 1.08169C29.1194 1.04345 29.17 1.01904 29.2242 1.01216C29.2787 1.00392 29.334 1.00097 29.3891 1.00336H31.5204H31.8492C32.3478 0.983789 32.8468 1.02747 33.3344 1.13336C33.7244 1.23142 34.0783 1.43882 34.3544 1.73116C34.6346 2.03841 34.8242 2.41735 34.9021 2.82586C34.9904 3.34425 35.0253 3.87034 35.0061 4.39586C35.0057 4.46336 35.0057 4.70736 35.0057 4.76986Z" fill="#1D1D1F"/>
</svg>
