<svg width="39" height="47" viewBox="0 0 39 47" fill="none" xmlns="http://www.w3.org/2000/svg">
<path d="M15.7062 47.0003H5.08089H4.71089C4.61249 47.0003 4.51473 47 4.41759 46.9993C3.90622 47.0084 3.39511 46.9701 2.89079 46.885C2.54569 46.8202 2.21137 46.7074 1.89759 46.5498C1.27489 46.2339 0.768929 45.728 0.452994 45.1053C0.295361 44.7916 0.182591 44.4573 0.117994 44.1122C0.0273731 43.5592 -0.0111958 42.999 0.00279398 42.4388V42.1455C0.00279398 42.0714 0.00279398 41.9967 0.00279398 41.9216V9.07901C0.00279398 9.00381 0.00279398 8.92918 0.00279398 8.85511C0.00279398 8.75657 0.00279398 8.65881 0.00279398 8.56181C-0.0111923 8.00163 0.0273766 7.44138 0.117994 6.88841C0.182607 6.54332 0.295375 6.20902 0.452994 5.89531C0.768885 5.27275 1.27474 4.7669 1.89729 4.45101C2.21107 4.29341 2.54539 4.18058 2.89049 4.11581C3.24485 4.05129 3.60387 4.01567 3.96399 4.00931C4.22619 4.00121 4.55579 4.00031 4.85459 4.00031H5.08089H13.9535C13.9481 4.18951 13.9403 4.37771 13.9396 4.56931V4.72151V4.86431V5.00031H5.08089H4.97229H4.85459C4.56629 5.00031 4.24789 5.00091 3.99459 5.00881C3.68859 5.01332 3.38346 5.04292 3.08229 5.09731C2.82836 5.14419 2.58231 5.22663 2.35139 5.34221C1.91689 5.56211 1.56392 5.91497 1.34389 6.34941C1.22854 6.58005 1.14626 6.8258 1.09949 7.07941C1.02166 7.57055 0.989289 8.06782 1.00279 8.56491V8.85491V9.07881V41.9216V42.1421V42.438C0.989358 42.934 1.02173 43.4302 1.09949 43.9203C1.14616 44.1743 1.22851 44.4205 1.34409 44.6514C1.56388 45.0859 1.91674 45.4387 2.35119 45.6585C2.58213 45.774 2.82818 45.8564 3.08209 45.9033C3.52572 45.9757 3.97499 46.0077 4.42439 45.9991L4.71149 46.0003H5.08089H14.7723C15.018 46.3893 15.3347 46.7285 15.7059 47.0003H15.7062ZM12.5887 5.58661C12.831 5.58661 13.0634 5.68287 13.2348 5.85422C13.4061 6.02558 13.5024 6.25798 13.5024 6.50031C13.5024 6.74264 13.4061 6.97504 13.2348 7.14639C13.0634 7.31774 12.831 7.41401 12.5887 7.41401H8.41609C8.17377 7.41401 7.94136 7.31774 7.77001 7.14639C7.59866 6.97504 7.50239 6.74264 7.50239 6.50031C7.50239 6.25798 7.59866 6.02558 7.77001 5.85422C7.94136 5.68287 8.17377 5.58661 8.41609 5.58661H12.5887ZM12.641 6.05031C12.552 6.05031 12.465 6.0767 12.391 6.12615C12.317 6.17559 12.2593 6.24587 12.2252 6.3281C12.1912 6.41033 12.1823 6.50081 12.1996 6.5881C12.217 6.67539 12.2599 6.75557 12.3228 6.81851C12.3857 6.88144 12.4659 6.9243 12.5532 6.94166C12.6405 6.95903 12.731 6.95011 12.8132 6.91605C12.8954 6.88199 12.9657 6.82432 13.0152 6.75032C13.0646 6.67631 13.091 6.58931 13.091 6.50031C13.091 6.38096 13.0436 6.2665 12.9592 6.18211C12.8748 6.09772 12.7603 6.05031 12.641 6.05031ZM29.5023 2.50031C29.5023 2.74261 29.406 2.97498 29.2347 3.14633C29.0634 3.31767 28.831 3.41396 28.5887 3.41401H24.4161C24.1738 3.41401 23.9414 3.31774 23.77 3.14639C23.5987 2.97504 23.5024 2.74264 23.5024 2.50031C23.5024 2.25798 23.5987 2.02558 23.77 1.85422C23.9414 1.68287 24.1738 1.58661 24.4161 1.58661H28.5887C28.831 1.58663 29.0634 1.68291 29.2347 1.85426C29.406 2.02561 29.5023 2.258 29.5023 2.50031ZM29.0907 2.50031C29.0907 2.41131 29.0643 2.3243 29.0149 2.2503C28.9654 2.1763 28.8951 2.11862 28.8129 2.08456C28.7307 2.0505 28.6402 2.04159 28.5529 2.05895C28.4656 2.07632 28.3854 2.11918 28.3225 2.18211C28.2596 2.24504 28.2167 2.32523 28.1993 2.41252C28.182 2.49981 28.1909 2.59029 28.2249 2.67252C28.259 2.75474 28.3167 2.82502 28.3907 2.87447C28.4647 2.92392 28.5517 2.95031 28.6407 2.95031C28.76 2.95031 28.8745 2.9029 28.9589 2.81851C29.0433 2.73412 29.0907 2.61966 29.0907 2.50031ZM38.0023 4.86691V42.1337C38.0023 42.2325 38.0023 42.3304 38.0018 42.4277C38.0159 42.9892 37.9774 43.5509 37.8866 44.1052C37.8216 44.4511 37.7084 44.7861 37.5504 45.1006C37.2339 45.7249 36.7266 46.2321 36.1023 46.5485C35.7879 46.7065 35.4529 46.8197 35.107 46.8845C34.7517 46.9492 34.3918 46.9849 34.0308 46.9913C33.7686 46.9994 33.439 47.0003 33.1402 47.0003H32.9109H20.0934H19.7223C19.6236 47.0003 19.5256 47 19.4283 46.9993C19.0048 46.9997 18.5818 46.9721 18.162 46.9169C18.0743 46.9046 17.9842 46.9015 17.8978 46.8847C17.5519 46.8199 17.2169 46.7067 16.9025 46.5487C16.6211 46.4038 16.3621 46.2191 16.1334 46.0003C16.1107 45.979 16.0846 45.962 16.0626 45.9403C15.8169 45.6943 15.6116 45.411 15.4542 45.101C15.2962 44.7865 15.183 44.4515 15.118 44.1056C15.027 43.5512 14.9883 42.9894 15.0023 42.4277C15.0023 42.3304 15.0023 42.2325 15.0023 42.1337V4.86691C15.0023 4.76801 15.0023 4.67011 15.0023 4.57281C15.003 4.38101 15.0096 4.19091 15.015 4.00041C15.0192 3.62987 15.0534 3.26029 15.1175 2.89531C15.1827 2.54955 15.296 2.21462 15.4542 1.90031C15.7705 1.27578 16.2778 0.768449 16.9023 0.452108C17.2167 0.29407 17.5517 0.180965 17.8976 0.116108C18.2528 0.0514038 18.6128 0.0156863 18.9738 0.00930837C19.236 0.00120837 19.5656 0.000308307 19.8644 0.000308307H20.0937H32.9112H33.098H33.2823C33.3809 0.000308307 33.4788 0.000308234 33.5765 0.00130823C34.0889 -0.007789 34.6011 0.0305749 35.1065 0.115908C35.4524 0.180765 35.7874 0.29387 36.1018 0.451908C36.7265 0.768215 37.234 1.27563 37.5504 1.90031C37.7084 2.21475 37.8216 2.54977 37.8866 2.89561C37.9775 3.44983 38.0162 4.01135 38.0023 4.57281V4.86691ZM37.0023 4.86691V4.71811V4.57531C37.0158 4.07732 36.9835 3.57915 36.9056 3.08711C36.8585 2.83243 36.7758 2.58565 36.66 2.35401C36.4394 1.91789 36.0851 1.56369 35.649 1.34311C35.4174 1.22727 35.1707 1.14463 34.9161 1.09761C34.4713 1.02502 34.0209 0.992851 33.5704 1.00151L33.2816 1.00031H33.098H33.0055H20.0934H19.9834H19.8645C19.5759 1.00031 19.2578 1.00101 19.0045 1.00881C18.6974 1.01327 18.3912 1.04297 18.089 1.09761C17.8343 1.14466 17.5875 1.22734 17.3558 1.34321C16.9199 1.5635 16.5658 1.91739 16.3453 2.35321C16.2293 2.58508 16.1466 2.83214 16.0995 3.08711C16.0474 3.38881 16.0191 3.69416 16.015 4.00031C16.0091 4.18731 16.0035 4.37351 16.0028 4.57611V4.72401V4.86921V42.1337V42.2765V42.4252C15.9892 42.9232 16.0216 43.4213 16.0995 43.9133C16.1466 44.168 16.2292 44.4149 16.3451 44.6466C16.5656 45.0826 16.9196 45.4367 17.3556 45.6573C17.5873 45.7732 17.8342 45.8559 18.089 45.903C18.1083 45.9068 18.1297 45.9066 18.149 45.9101C18.5743 45.9752 19.0042 46.0049 19.4344 45.9991L19.7225 46.0001H20.0931H33.0216H33.1405C33.4291 46.0001 33.7472 45.9994 34.0005 45.9916C34.3076 45.987 34.6138 45.9573 34.916 45.9028C35.1707 45.8558 35.4175 45.7731 35.6492 45.6572C36.0849 45.4365 36.4387 45.0824 36.6592 44.6466C36.7752 44.4148 36.858 44.1677 36.905 43.9128C36.9831 43.4207 37.0157 42.9224 37.0023 42.4243V42.2825V42.1312V4.86691Z" fill="#1D1D1F"/>
</svg>
