<svg width="28" height="28" viewBox="0 0 28 28" fill="none" xmlns="http://www.w3.org/2000/svg">
<path d="M13.75 0C11.0305 0 8.37209 0.806424 6.11092 2.31729C3.84974 3.82816 2.08737 5.97562 1.04666 8.4881C0.0059576 11.0006 -0.266338 13.7653 0.264209 16.4325C0.794755 19.0997 2.10432 21.5497 4.02729 23.4727C5.95026 25.3957 8.40028 26.7053 11.0675 27.2358C13.7348 27.7663 16.4994 27.494 19.0119 26.4533C21.5244 25.4126 23.6718 23.6503 25.1827 21.3891C26.6936 19.1279 27.5 16.4695 27.5 13.75C27.5 10.1033 26.0513 6.60591 23.4727 4.02728C20.8941 1.44866 17.3967 0 13.75 0ZM13.75 25.85C11.3569 25.85 9.01744 25.1403 7.02761 23.8108C5.03777 22.4812 3.48688 20.5915 2.57106 18.3805C1.65524 16.1695 1.41562 13.7366 1.8825 11.3894C2.34939 9.04224 3.5018 6.88622 5.19401 5.19401C6.88623 3.50179 9.04224 2.34938 11.3894 1.8825C13.7366 1.41562 16.1695 1.65524 18.3805 2.57106C20.5915 3.48688 22.4812 5.03776 23.8108 7.0276C25.1404 9.01743 25.85 11.3568 25.85 13.75C25.8463 16.958 24.5703 20.0335 22.3019 22.3019C20.0335 24.5703 16.958 25.8463 13.75 25.85ZM13.75 2.75C11.5744 2.75 9.44767 3.39514 7.63873 4.60383C5.82979 5.81253 4.4199 7.53049 3.58733 9.54048C2.75477 11.5505 2.53693 13.7622 2.96137 15.896C3.38581 18.0298 4.43345 19.9898 5.97183 21.5282C7.51021 23.0666 9.47022 24.1142 11.604 24.5386C13.7378 24.9631 15.9495 24.7452 17.9595 23.9127C19.9695 23.0801 21.6875 21.6702 22.8962 19.8613C24.1049 18.0523 24.75 15.9256 24.75 13.75C24.75 12.3055 24.4655 10.8751 23.9127 9.54048C23.3599 8.2059 22.5496 6.99327 21.5282 5.97182C20.5067 4.95038 19.2941 4.14013 17.9595 3.58733C16.6249 3.03452 15.1945 2.75 13.75 2.75ZM14.224 9.006C14.3896 8.80366 14.5961 8.63858 14.83 8.52157C15.0638 8.40456 15.3198 8.33826 15.581 8.327C15.6023 8.5896 15.5704 8.8538 15.4872 9.1038C15.404 9.35379 15.2713 9.58446 15.097 9.782C14.9454 9.99931 14.7418 10.1752 14.5048 10.2936C14.2677 10.4121 14.0048 10.4693 13.74 10.46C13.7153 10.1973 13.7456 9.93237 13.8289 9.68204C13.9122 9.43171 14.0468 9.20147 14.224 9.006ZM16.878 16.484C16.502 17.058 16.071 17.636 15.436 17.636C14.836 17.636 14.628 17.248 13.931 17.248C13.182 17.248 12.955 17.636 12.382 17.636C11.747 17.636 11.313 17.027 10.916 16.459C10.3201 15.5579 9.9882 14.5079 9.95801 13.428C9.93125 12.8453 10.0655 12.2665 10.346 11.755C10.5421 11.4079 10.8226 11.116 11.1616 10.9062C11.5005 10.6965 11.8869 10.5757 12.285 10.555C12.894 10.534 13.416 10.991 13.785 10.991C14.3704 10.7992 14.9699 10.6534 15.578 10.555C15.9158 10.5538 16.2486 10.6375 16.5456 10.7984C16.8427 10.9593 17.0945 11.1923 17.278 11.476C16.9719 11.6693 16.7192 11.9362 16.5429 12.2524C16.3666 12.5686 16.2724 12.924 16.269 13.286C16.2796 13.6847 16.4027 14.0722 16.6243 14.4039C16.8459 14.7355 17.1567 14.9976 17.521 15.16C17.3764 15.6319 17.1595 16.0786 16.878 16.484Z" fill="#1D1D1F"/>
</svg>
