<svg width="38" height="48" viewBox="0 0 38 48" fill="none" xmlns="http://www.w3.org/2000/svg">
<path d="M23.3981 2.10147C23.0474 1.40916 22.485 0.846746 21.7927 0.495967C21.444 0.320721 21.0725 0.195297 20.6889 0.123367C20.295 0.0517265 19.8958 0.0121635 19.4955 0.00506667C19.1279 -0.00633333 18.6408 0.00506667 18.2539 0.00506667H5.5302C5.3652 0.00506667 5.2026 0.00506663 5.0412 0.00556663C4.42836 -0.0123098 3.8152 0.0271284 3.2097 0.123367C2.82609 0.19536 2.45448 0.32078 2.1057 0.495967C1.41373 0.847049 0.851566 1.40939 0.5007 2.10147C0.325583 2.45013 0.200165 2.82161 0.1281 3.20507C0.0677228 3.52907 0.0309594 3.85704 0.0180999 4.18637C0.0024999 4.51157 0.0005 4.86407 0 5.19917V5.64007V41.3561C0 41.5049 0 41.6519 0 41.797C0 42.1321 0.0024999 42.4846 0.0180999 42.8099C0.0309724 43.1392 0.0677357 43.4672 0.1281 43.7912C0.200158 44.1747 0.325576 44.5463 0.5007 44.8951C0.851625 45.5873 1.41395 46.1497 2.1061 46.5007C2.45488 46.6758 2.8265 46.8012 3.2101 46.8732C3.60404 46.9449 4.00315 46.9845 4.4035 46.9917C4.7709 47.0031 5.2582 47.0017 5.6452 47.0017C10.3662 47.0017 11.9908 47.0051 16.7117 47.0051C16.5934 46.9051 16.4917 46.7666 16.3417 46.6428C16.1444 46.4375 15.9657 46.2151 15.8076 45.9783C15.6151 45.698 15.4646 45.3911 15.3609 45.0674C15.256 44.7351 15.1749 44.3957 15.1182 44.0519C15.0623 43.7543 15.0285 43.4531 15.0171 43.1506C15.0024 42.8517 15.0005 42.5282 15 42.2206C15 42.0859 15 41.95 15 41.812V8.19827C15 8.06027 15 7.92447 15 7.78987C15 7.48207 15.0024 7.15847 15.0171 6.85987C15.0288 6.55734 15.0626 6.25607 15.1182 5.95847C15.1843 5.60563 15.2997 5.26382 15.4609 4.94307C15.7836 4.30626 16.3009 3.78891 16.9377 3.46617C17.2586 3.30497 17.6005 3.18962 17.9534 3.12347C18.5046 3.03234 19.0631 2.993 19.6216 3.00597C19.7827 3.00507 19.9457 3.00507 20.1113 3.00507H23.8648M10.3347 6.68587C10.3347 6.94977 10.3347 7.13347 10.3342 7.28707C10.3337 7.43807 10.3322 7.56317 10.3283 7.67807C10.3232 7.90322 10.2979 8.12746 10.2526 8.34807C10.2044 8.57838 10.1244 8.8009 10.0151 9.00927C9.78781 9.44042 9.43546 9.79278 9.0043 10.0201C8.7959 10.1293 8.57344 10.2092 8.3432 10.2577C8.12258 10.3029 7.89835 10.3282 7.6732 10.3333C7.5582 10.3373 7.4332 10.3387 7.2821 10.3391C7.1285 10.3398 6.9447 10.3397 6.6808 10.3397H5.319C5.0551 10.3397 4.8713 10.3397 4.7177 10.3391C4.5666 10.3391 4.4416 10.3373 4.3266 10.3333C4.10145 10.3282 3.87722 10.3029 3.6566 10.2577C3.42636 10.2092 3.2039 10.1293 2.9955 10.0201C2.56434 9.79278 2.21199 9.44042 1.9847 9.00927C1.87536 8.8009 1.79543 8.57838 1.7472 8.34807C1.7019 8.12746 1.67656 7.90322 1.6715 7.67807C1.6676 7.56317 1.6661 7.43807 1.6656 7.28707C1.6651 7.13337 1.6651 6.94977 1.6651 6.68587V5.32427C1.6651 5.06027 1.6651 4.87667 1.6656 4.72307C1.6656 4.57187 1.6676 4.44677 1.6715 4.33197C1.67657 4.10681 1.7019 3.88257 1.7472 3.66197C1.79558 3.43169 1.8755 3.2092 1.9847 3.00077C2.2119 2.56958 2.56409 2.2171 2.9951 1.98957C3.2035 1.88036 3.42596 1.80041 3.6562 1.75197C3.87682 1.70675 4.10105 1.68145 4.3262 1.67637C4.4412 1.67237 4.5662 1.67107 4.7173 1.67047H5.3186H6.6804H7.2817C7.4328 1.67107 7.5578 1.67237 7.6726 1.67637C7.89795 1.68142 8.12238 1.70672 8.3432 1.75197C8.57344 1.80041 8.7959 1.88036 9.0043 1.98957C9.4354 2.21693 9.78773 2.56927 10.0151 3.00037C10.1244 3.20874 10.2044 3.43125 10.2526 3.66157C10.2979 3.88217 10.3232 4.10641 10.3283 4.33157C10.3322 4.44647 10.3337 4.57157 10.3342 4.72267C10.3347 4.87637 10.3347 5.05997 10.3347 5.32387V6.68587ZM34.9997 21.3131V42.697C34.9653 43.0742 34.7839 43.4227 34.4948 43.6674C34.2057 43.9121 33.832 44.0334 33.4543 44.0051H20.5451C20.1674 44.0334 19.7937 43.9121 19.5046 43.6674C19.2155 43.4227 19.0341 43.0742 18.9997 42.697V21.3182C19.0342 20.9396 19.2162 20.5897 19.5063 20.344C19.7965 20.0984 20.1716 19.9766 20.5507 20.0051H33.4545C33.8322 19.9767 34.2059 20.098 34.4949 20.3427C34.784 20.5874 34.9653 20.9359 34.9997 21.3131ZM37.9997 8.82647C37.9992 8.51867 37.9975 8.19507 37.9831 7.89647C37.9712 7.59394 37.9373 7.29268 37.8817 6.99507C37.8156 6.64223 37.7002 6.30042 37.539 5.97967C37.2161 5.34302 36.6988 4.82576 36.0622 4.50287C35.7414 4.34157 35.3995 4.22617 35.0465 4.16007C34.6842 4.09405 34.3171 4.0576 33.9489 4.05107C33.6107 4.04107 33.1625 4.04187 32.8065 4.04187H21.0865C20.9209 4.04187 20.7579 4.04187 20.5965 4.04267C20.038 4.02961 19.4795 4.06892 18.9283 4.16007C18.5754 4.2262 18.2334 4.3416 17.9126 4.50287C17.2758 4.82547 16.7584 5.34272 16.4357 5.97947C16.2745 6.30028 16.1591 6.64216 16.093 6.99507C16.0374 7.29267 16.0036 7.59394 15.9919 7.89647C15.9772 8.19527 16.0004 8.51887 15.9999 8.82647V9.23497V41.8118V42.2204C15.9999 42.5282 15.9772 42.8517 15.9919 43.1504C16.0036 43.4529 16.0374 43.7541 16.093 44.0517C16.1591 44.4045 16.2745 44.7464 16.4357 45.0672C16.7584 45.704 17.2757 46.2213 17.9125 46.5441C18.2334 46.7052 18.5753 46.8205 18.9282 46.8868C19.2906 46.9528 19.6578 46.9892 20.0261 46.9957C20.364 47.0062 20.8122 47.0048 21.1682 47.0048H32.8882H33.3782C33.9366 47.0177 34.495 46.9783 35.0461 46.8873C35.399 46.8211 35.7409 46.7057 36.0618 46.5446C36.6984 46.2216 37.2157 45.7043 37.5386 45.0677C37.6998 44.7469 37.8152 44.405 37.8813 44.0522C37.9369 43.7546 37.9708 43.4534 37.9827 43.1509C37.9971 42.852 37.9988 42.5285 37.9993 42.2209C37.9993 42.0862 37.9993 41.9503 37.9993 41.8123V9.23507C37.9997 9.09697 37.9997 8.96117 37.9997 8.82647ZM17.664 8.70987C17.6647 8.55927 17.6659 8.43457 17.6698 8.31987C17.6748 8.09543 17.7 7.8719 17.745 7.65197C17.7935 7.42254 17.8733 7.20087 17.9821 6.99317C18.2083 6.56372 18.5592 6.21283 18.9887 5.98667C19.1963 5.87784 19.418 5.79815 19.6474 5.74987C19.8674 5.70481 20.0909 5.67961 20.3154 5.67457C20.4296 5.67067 20.5542 5.66937 20.7048 5.66877C20.8579 5.66817 21.041 5.66877 21.3039 5.66877H22.6955H23.1508C23.2973 5.66877 23.4592 5.66877 23.6062 5.67247C23.91 5.67326 24.2126 5.7121 24.5068 5.78807C24.8415 5.87783 25.1529 6.03853 25.4201 6.25926C25.6872 6.47999 25.9037 6.75559 26.0549 7.06737C26.1971 7.36825 26.2838 7.6923 26.311 8.02397C26.3264 8.18207 26.332 8.34037 26.3342 8.52397C26.3364 8.69177 26.3359 8.95347 26.3359 9.30907V10.7018C26.3359 10.9646 26.3359 11.1476 26.3354 11.3006C26.3347 11.4511 26.3334 11.5758 26.3295 11.6901C26.3244 11.9145 26.2992 12.138 26.2541 12.358C26.2059 12.5874 26.1263 12.8091 26.0175 13.0168C25.791 13.4463 25.4399 13.7973 25.0104 14.0238C24.8028 14.1325 24.5812 14.2122 24.3518 14.2605C24.1318 14.3055 23.9083 14.3307 23.6838 14.3357C23.5695 14.3397 23.4448 14.3411 23.2944 14.3416C23.1411 14.3422 22.9582 14.3416 22.6953 14.3416H21.3039C20.9482 14.3416 20.6865 14.3416 20.5188 14.3399C20.3352 14.3376 20.177 14.332 20.0188 14.3167C19.6871 14.2897 19.363 14.2029 19.0622 14.0605C18.82 13.9432 18.5992 13.7862 18.4089 13.5961C18.1095 13.2955 17.8937 12.9219 17.7829 12.5124C17.707 12.2182 17.6681 11.9156 17.6672 11.6118C17.6635 11.4649 17.6635 11.303 17.6635 11.1564C17.6635 11.0048 17.6635 10.8535 17.6635 10.7014V9.30867C17.6635 9.04577 17.6633 8.86277 17.6638 8.70987H17.664ZM35.9997 42.697C35.9667 43.34 35.6804 43.9439 35.2034 44.3764C34.7264 44.8089 34.0975 45.035 33.4543 45.0051H20.5451C19.9019 45.035 19.273 44.8089 18.796 44.3764C18.319 43.9439 18.0327 43.34 17.9997 42.697V21.3182C18.0328 20.6737 18.3197 20.0685 18.7978 19.6351C19.2758 19.2016 19.9061 18.9751 20.5507 19.0051H33.4545C34.0977 18.9752 34.7265 19.2012 35.2035 19.6337C35.6804 20.0663 35.9667 20.67 35.9997 21.3131V42.697Z" fill="#1D1D1F"/>
</svg>
