<svg width="32" height="32" viewBox="0 0 32 32" fill="none" xmlns="http://www.w3.org/2000/svg">
<path d="M16.86 16.46C16.86 19.32 15.37 21.13 12.99 21.13C10.61 21.13 9.12 19.32 9.12 16.46C9.12 13.59 10.61 11.79 12.99 11.79C15.37 11.79 16.86 13.59 16.86 16.46ZM32 8.8V23.2C32 24.34 31.99 26.14 31.37 27.74C31.06 28.53 30.34 29.64 29.32 30.43C28.73 30.88 28.03 31.32 27.07 31.6C26.04 31.9 24.77 32 23.2 32H8.8C7.23 32 5.96 31.9 4.93 31.59C3.97 31.3 3.27 30.87 2.68 30.42C1.66 29.64 0.94 28.52 0.63 27.73C0.00999999 26.14 0 24.34 0 23.2V8.8C0 7.66 0.00999999 5.86 0.63 4.26C0.94 3.47 1.66 2.36 2.68 1.57C3.27 1.12 3.97 0.68 4.93 0.4C5.96 0.0999996 7.23 0 8.8 0H23.2C24.78 0 26.04 0.0999998 27.07 0.41C28.03 0.7 28.74 1.13 29.32 1.58C30.34 2.36 31.06 3.48 31.37 4.27C31.99 5.86 32 7.66 32 8.8ZM6.31 22.27V15.33H4.88V22.27H6.31ZM6.41 13.4C6.41 12.95 6.05 12.58 5.59 12.58C5.14 12.58 4.77 12.94 4.77 13.4C4.77 13.85 5.14 14.22 5.59 14.22C6.05 14.21 6.41 13.85 6.41 13.4ZM18.35 16.46C18.35 12.77 16.29 10.45 12.99 10.45C9.69 10.45 7.63 12.77 7.63 16.46C7.63 20.15 9.69 22.46 12.99 22.46C16.29 22.46 18.35 20.15 18.35 16.46ZM27.63 18.97C27.63 17.33 26.67 16.36 24.25 15.83L22.96 15.55C21.37 15.2 20.75 14.57 20.75 13.66C20.75 12.47 21.87 11.77 23.32 11.77C24.84 11.77 25.84 12.55 25.97 13.82H27.42C27.35 11.85 25.68 10.46 23.36 10.46C20.95 10.46 19.26 11.81 19.26 13.72C19.26 15.37 20.27 16.43 22.6 16.93L23.89 17.21C25.5 17.56 26.15 18.21 26.15 19.18C26.15 20.33 25 21.15 23.43 21.15C21.76 21.15 20.6 20.39 20.43 19.14H18.98C19.12 21.15 20.81 22.45 23.35 22.45C25.94 22.46 27.63 21.12 27.63 18.97Z" fill="#1D1D1F"/>
</svg>
