<svg width="14" height="14" viewBox="0 0 14 14" fill="none" xmlns="http://www.w3.org/2000/svg">
<path d="M13.8305 13.0134L10.1484 9.33257C11.076 8.19695 11.5317 6.7485 11.4213 5.28656C11.3109 3.82463 10.6429 2.46096 9.55532 1.4774C8.46774 0.493836 7.04374 -0.0344423 5.57761 0.00174341C4.11147 0.0379291 2.71528 0.635814 1.67759 1.67183C0.639892 2.70785 0.0400138 4.10281 0.00193043 5.56841C-0.036153 7.034 0.49047 8.45821 1.47296 9.54669C2.45545 10.6352 3.81871 11.3047 5.28098 11.4169C6.74326 11.5292 8.19278 11.0755 9.32997 10.1497L13.012 13.8305C13.0658 13.8843 13.1296 13.9269 13.1998 13.956C13.27 13.985 13.3453 14 13.4213 14C13.4973 14 13.5725 13.985 13.6427 13.956C13.7129 13.9269 13.7767 13.8843 13.8305 13.8305C13.8842 13.7768 13.9269 13.713 13.9559 13.6428C13.985 13.5727 14 13.4974 14 13.4214C14 13.3455 13.985 13.2702 13.9559 13.2C13.9269 13.1299 13.8842 13.0661 13.8305 13.0123V13.0134ZM1.18422 5.73061C1.18443 4.83231 1.45108 3.95423 1.95047 3.20742C2.44986 2.46061 3.15956 1.87859 3.98982 1.53497C4.82008 1.19135 5.73362 1.10155 6.61494 1.27693C7.49625 1.45231 8.30575 1.88499 8.94109 2.52026C9.57643 3.15553 10.0091 3.96486 10.1843 4.84593C10.3595 5.72699 10.2695 6.64021 9.92556 7.47011C9.58163 8.30002 8.99926 9.00934 8.25208 9.5084C7.5049 10.0074 6.62647 10.2738 5.72787 10.2738C4.52298 10.2727 3.36777 9.79365 2.51588 8.94185C1.66399 8.09004 1.18505 6.93511 1.18422 5.73061V5.73061Z" fill="white"/>
</svg>
