<svg width="14" height="17" viewBox="0 0 14 17" fill="none" xmlns="http://www.w3.org/2000/svg">
<path fill-rule="evenodd" clip-rule="evenodd" d="M12 13.84C12 14.4765 11.5 15.0069 10.9 15.0069H2.1C1.5 15.0069 1 14.4765 1 13.84V5.45975C1 4.92935 1.5 4.39895 2.1 4.39895H11C11.6 4.39895 12.1 4.92935 12.1 5.56583V13.84H12ZM6.5 1.21656C7.7 1.21656 8.6 2.17128 8.8 3.33815H4.2C4.4 2.17128 5.3 1.21656 6.5 1.21656ZM10.9 3.33815H9.8C9.6 1.5348 8.2 0.155762 6.5 0.155762C4.8 0.155762 3.4 1.5348 3.2 3.33815H2.1C0.9 3.33815 0 4.29287 0 5.56583V13.9461C0 15.113 0.9 16.0677 2.1 16.0677H11C12.1 16.0677 13.1 15.113 13.1 13.84V5.45975C13 4.29287 12.1 3.33815 10.9 3.33815Z" fill="white"/>
</svg>
