<svg width="19" height="40" viewBox="0 0 19 40" fill="none" xmlns="http://www.w3.org/2000/svg">
<path d="M16 0H3C2.20508 0.00237409 1.4434 0.319207 0.881302 0.881302C0.319207 1.4434 0.00237409 2.20508 0 3L0 37C0.00237409 37.7949 0.319207 38.5566 0.881302 39.1187C1.4434 39.6808 2.20508 39.9976 3 40H16C16.7949 39.9976 17.5566 39.6808 18.1187 39.1187C18.6808 38.5566 18.9976 37.7949 19 37V3C18.9976 2.20508 18.6808 1.4434 18.1187 0.881302C17.5566 0.319207 16.7949 0.00237409 16 0ZM7.25 2.25H11.75C11.8163 2.25 11.8799 2.27634 11.9268 2.32322C11.9737 2.37011 12 2.4337 12 2.5C12 2.5663 11.9737 2.62989 11.9268 2.67678C11.8799 2.72366 11.8163 2.75 11.75 2.75H7.25C7.1837 2.75 7.12011 2.72366 7.07322 2.67678C7.02634 2.62989 7 2.5663 7 2.5C7 2.4337 7.02634 2.37011 7.07322 2.32322C7.12011 2.27634 7.1837 2.25 7.25 2.25ZM5.5 2.125C5.57417 2.125 5.64667 2.14699 5.70834 2.1882C5.77001 2.2294 5.81807 2.28797 5.84645 2.35649C5.87484 2.42502 5.88226 2.50042 5.86779 2.57316C5.85332 2.6459 5.81761 2.71272 5.76516 2.76517C5.71272 2.81761 5.6459 2.85332 5.57316 2.86779C5.50042 2.88226 5.42502 2.87484 5.35649 2.84645C5.28797 2.81807 5.2294 2.77001 5.1882 2.70834C5.14699 2.64667 5.125 2.57417 5.125 2.5C5.125 2.40054 5.16451 2.30516 5.23484 2.23483C5.30516 2.16451 5.40054 2.125 5.5 2.125ZM9.5 39.25C9.15388 39.25 8.81554 39.1474 8.52775 38.9551C8.23997 38.7628 8.01566 38.4895 7.88321 38.1697C7.75076 37.8499 7.7161 37.4981 7.78363 37.1586C7.85115 36.8191 8.01782 36.5073 8.26256 36.2626C8.5073 36.0178 8.81913 35.8512 9.15859 35.7836C9.49806 35.7161 9.84993 35.7508 10.1697 35.8832C10.4895 36.0157 10.7628 36.24 10.9551 36.5278C11.1474 36.8155 11.25 37.1539 11.25 37.5C11.25 37.9641 11.0656 38.4092 10.7374 38.7374C10.4092 39.0656 9.96413 39.25 9.5 39.25ZM18 35H1V5H18V35Z" fill="#1D1D1F"/>
</svg>
